<svg viewBox="0 0 35 35" xmlns="http://www.w3.org/2000/svg" xmlns:xlink="http://www.w3.org/1999/xlink" id="e73e2821-510d-456e-b3bd-9363037e93e3" overflow="hidden"><path d="M11.933 15.055 3.479 15.055C1.69675 15.0533 0.252205 13.6093 0.25 11.827L0.25 3.478C0.252205 1.69575 1.69675 0.251653 3.479 0.25L11.933 0.25C13.7149 0.252204 15.1588 1.69614 15.161 3.478L15.161 11.827C15.1588 13.6089 13.7149 15.0528 11.933 15.055ZM3.479 2.75C3.077 2.75055 2.7511 3.076 2.75 3.478L2.75 11.827C2.7511 12.229 3.077 12.5545 3.479 12.555L11.933 12.555C12.3348 12.5544 12.6604 12.2288 12.661 11.827L12.661 3.478C12.6604 3.07616 12.3348 2.75055 11.933 2.75Z" fill="#F8DC81"/><path d="M11.974 34.75 3.52 34.75C1.73759 34.7478 0.293204 33.3034 0.291 31.521L0.291 23.173C0.293205 21.3907 1.73775 19.9467 3.52 19.945L11.974 19.945C13.7551 19.9483 15.1978 21.3919 15.2 23.173L15.2 31.521C15.1983 33.3025 13.7555 34.7467 11.974 34.75ZM3.52 22.445C3.118 22.4455 2.7921 22.771 2.791 23.173L2.791 31.521C2.79155 31.9234 3.11761 32.2495 3.52 32.25L11.974 32.25C12.376 32.2489 12.7015 31.923 12.702 31.521L12.702 23.173C12.7014 22.7712 12.3758 22.4456 11.974 22.445Z" fill="#F8DC81"/><path d="M31.522 34.75 23.068 34.75C21.2856 34.7478 19.8412 33.3034 19.839 31.521L19.839 23.173C19.8412 21.3907 21.2857 19.9467 23.068 19.945L31.522 19.945C33.3039 19.9472 34.7478 21.3911 34.75 23.173L34.75 31.521C34.7483 33.3033 33.3043 34.7478 31.522 34.75ZM23.068 22.45C22.666 22.4506 22.3401 22.776 22.339 23.178L22.339 31.526C22.3396 31.9284 22.6656 32.2544 23.068 32.255L31.522 32.255C31.924 32.2539 32.2495 31.928 32.25 31.526L32.25 23.173C32.2495 22.7712 31.9238 22.4456 31.522 22.445Z" fill="#F8DC81"/><path d="M27.3 15.055C23.2132 15.0246 19.9248 11.687 19.9552 7.6002 19.9856 3.51341 23.3232 0.225033 27.41 0.255409 31.4753 0.285624 34.7549 3.58964 34.755 7.655 34.7346 11.7549 31.4 15.065 27.3 15.055ZM27.3 2.755C24.594 2.78538 22.4249 5.00367 22.4553 7.70969 22.4857 10.4157 24.704 12.5848 27.41 12.5544 30.0944 12.5243 32.2548 10.3396 32.255 7.655 32.2385 4.93338 30.0216 2.73892 27.3 2.75Z" fill="#F8DC81"/></svg>