<?xml version="1.0" encoding="UTF-8" standalone="no" ?>
<!DOCTYPE svg PUBLIC "-//W3C//DTD SVG 1.1//EN" "http://www.w3.org/Graphics/SVG/1.1/DTD/svg11.dtd">
<svg xmlns="http://www.w3.org/2000/svg" xmlns:xlink="http://www.w3.org/1999/xlink" version="1.1" width="1080" height="1080" viewBox="0 0 1080 1080" xml:space="preserve">
<desc>Created with Fabric.js 4.2.0</desc>
<defs>
</defs>
<rect x="0" y="0" width="100%" height="100%" fill="transparent"></rect>
<g transform="matrix(1 0 0 1 540 540)" id="ae6fa8dc-523e-4f75-acfc-f0220cb8471e"  >
<rect style="stroke: none; stroke-width: 1; stroke-dasharray: none; stroke-linecap: butt; stroke-dashoffset: 0; stroke-linejoin: miter; stroke-miterlimit: 4; fill: rgb(255,255,255); fill-rule: nonzero; opacity: 1;" vector-effect="non-scaling-stroke"  x="-540" y="-540" rx="0" ry="0" width="1080" height="1080" />
</g>
<g transform="matrix(1 0 0 1 540 540)" id="bff41dfc-b789-472b-bff2-3a71544959ea"  >
</g>
<g transform="matrix(12.34 0 0 12.34 540 540)" id="Icon_material-group-work"  >
<path style="stroke: rgb(0,0,0); stroke-width: 0; stroke-dasharray: none; stroke-linecap: butt; stroke-dashoffset: 0; stroke-linejoin: miter; stroke-miterlimit: 4; fill: rgb(250,251,248); fill-rule: nonzero; opacity: 1;" vector-effect="non-scaling-stroke"  transform=" translate(-20.5, -20.5)" d="M 20.5 3 C 10.835016877961115 3 3 10.835016877961115 3 20.5 C 3 30.164983122038883 10.835016877961115 38 20.5 38 C 30.164983122038883 38 38 30.164983122038883 38 20.5 C 37.996688464689754 10.836388893174112 30.163611106825876 3.0033115353102318 20.499999999999986 3 Z M 13.5 30.125 C 11.08375421949028 30.125 9.125 28.166245780509723 9.125 25.75 C 9.125 23.33375421949028 11.08375421949028 21.375 13.5 21.375 C 15.91624578050972 21.375 17.875 23.333754219490277 17.875 25.75 C 17.873896396124618 28.165788505152307 15.915788505152307 30.123896396124614 13.5 30.125 Z M 16.125 13.5 C 16.125 11.08375421949028 18.083754219490277 9.125 20.5 9.125 C 22.91624578050972 9.125 24.875 11.083754219490277 24.875 13.499999999999998 C 24.875 15.91624578050972 22.916245780509723 17.875 20.5 17.875 C 18.084211494847693 17.873896396124618 16.126103603875382 15.915788505152305 16.125 13.5 Z M 27.5 30.125 C 25.083754219490277 30.125 23.125 28.166245780509723 23.125 25.75 C 23.125 23.33375421949028 25.083754219490277 21.375 27.5 21.375 C 29.916245780509723 21.375 31.875 23.333754219490277 31.875 25.75 C 31.873896396124618 28.165788505152307 29.915788505152307 30.123896396124614 27.5 30.125 Z" stroke-linecap="round" />
</g>
</svg>